<svg id="KO__White" data-name="KO&amp;_White" xmlns="http://www.w3.org/2000/svg" xmlns:xlink="http://www.w3.org/1999/xlink" width="205.505" height="100" viewBox="0 0 205.505 100">
  <defs>
    <clipPath id="clip-path">
      <rect id="Rectangle_32" data-name="Rectangle 32" width="205.505" height="100" fill="none"/>
    </clipPath>
    <clipPath id="clip-path-3">
      <rect id="Rectangle_30" data-name="Rectangle 30" width="89.119" height="27.951" fill="none"/>
    </clipPath>
  </defs>
  <g id="Group_57" data-name="Group 57" clip-path="url(#clip-path)">
    <g id="Group_56" data-name="Group 56">
      <g id="Group_55" data-name="Group 55" clip-path="url(#clip-path)">
        <path id="Path_17" data-name="Path 17" d="M100,50A50,50,0,1,1,50,0a50,50,0,0,1,50,50m83.526,32.533c4.6,4.53,10.588,12.664,21.958,10.272,0,0-1.642,6.055-11.034,7.1-2.419.268-8.269-.017-11.932-2.464-3.75-2.5-10.833-10.4-18.422-19.57a61.944,61.944,0,0,1-6.787,9.754c-5.348,6.087-11.9,10.638-20.027,11.988a26.9,26.9,0,0,1-21.425-5.386c-6.206-5.058-9.89-11.729-10.656-21.16a26.716,26.716,0,0,1,13.252-25.019,37.692,37.692,0,0,1,14.527-4.836l2.03,2.671c-25.345,4.787-24.731,25.64-17.783,35.568,7.59,10.847,28.582,16.77,44.487-6.477C135.046,39.565,135,39.572,135,39.572c-3.985-4.705-6.947-10.478-7.207-16.7a20.52,20.52,0,0,1,6.091-15.5A25.359,25.359,0,0,1,148.2.182c17.179-1.988,24.661,12.78,23.053,23.024-1.232,7.448-5.919,13.861-19.031,18.726,13.032,17.527,27.589,36.947,31.3,40.6m-39.793-52c2.328,3.14,5.767,7.9,6.261,8.392,4.656-.646,16.578-4.515,18.716-16.137,2.149-11.681-7.943-20.408-15.98-20.683a15.162,15.162,0,0,0-4.312.471,12.5,12.5,0,0,0-5.229,2.744,13.5,13.5,0,0,0-3.468,4.971,16.477,16.477,0,0,0-1.067,3.768,17.055,17.055,0,0,0-.073,4.678,20.744,20.744,0,0,0,1.5,5.516,30.284,30.284,0,0,0,3.652,6.28m59.083.18c-15.389,1.654-25.446,14.831-32.16,27.594-.047.088-.452.927-.6,1.225l2.011,2.648.234-.464c3.578-6.758,14.9-24.618,33.2-20.246V30.551c-.922.019-1.822.07-2.688.162" fill="#fff"/>
        <g id="Group_54" data-name="Group 54" transform="translate(5.757 35.392)" style="mix-blend-mode: multiply;isolation: isolate">
          <g id="Group_53" data-name="Group 53">
            <g id="Group_52" data-name="Group 52" clip-path="url(#clip-path-3)">
              <path id="Path_18" data-name="Path 18" d="M49.546,95.15a11.7,11.7,0,0,0-7.087-2.065A4.347,4.347,0,0,0,39,94.961c-1.077-1.877-3.2-3.028-6.492-3-5.309.063-10.579,2.514-14.751,2.514-4.006,0-6.924-2.514-6.828-6.983C11.1,79.663,17.718,72.6,22.666,69.425c2.842-1.827,5.224-2.369,6.781-2.2A2.274,2.274,0,0,1,31.089,70.6c-1.265,2.834-3.014,2.6-2.951,1.242A2.246,2.246,0,0,1,29.2,70.108a2.152,2.152,0,0,1,1.031-.254c.249-.212.441-1.761-1.6-1.25s-4.488,2.513-6.827,5.092-5.975,7.47-6.874,12.6c-.417,2.38-.136,6.714,5.5,6.664,4.776-.041,11.829-3.188,18.306-3.133a12.365,12.365,0,0,1,6.409,1.753,17.718,17.718,0,0,1,4.4,3.571m1.53-14.2h.98s-4.907,7.1-7.68,6.775c-1.549-.179-1.091-2.091-1.091-2.091s-2.179,2.547-4.168,2.038c-1.812-.463-.645-3.477-.645-3.477-.206.084-4.125,4.506-6.878,3.445-2.88-1.11-1.389-4.811-.84-5.922.463-.938.977-1.853.977-1.853s-.442.126-.717.19-.692.143-.692.143-1.363,2.217-2.2,3.323-4.373,4.909-6.459,4.151-1.573-3.675-.4-5.995c1.9-3.762,6.411-8.384,9.125-7.691,2.744.7.473,5.151.473,5.151s.547.07,1.855-.822c1.885-1.286,4.366-4.745,7.058-4.341,1.265.19,2.442,1.488.833,3.951-.516.791-1.38,1.5-2.044.8-.411-.432-.053-1.227.379-1.77a1.7,1.7,0,0,1,1.454-.664s.442-1.022-.685-1c-.917.017-3.233,2.153-4.541,4.31-1.2,1.98-3.017,5.355-1.191,6.089,1.675.675,4.858-3.107,6.333-5.089s4.829-6.475,7.649-6.659a1.881,1.881,0,0,1,1.549.822l.327-.516h2.813s-5.305,8.864-5.721,9.536c-.326.526-.758,1.706.443,1.042s3.7-3.877,3.7-3.877m-21.849-.9a6.218,6.218,0,0,1-1.45-.663A3.086,3.086,0,0,1,26.74,78.24c-.024-.046-.052-.011-.081.028s-.175.229-1.18,1.7-2.494,4.5-1.1,5.011c.893.331,2.392-1.238,3.2-2.275a25.988,25.988,0,0,0,1.687-2.533c.039-.087,0-.109-.045-.127m1.113-4.711c-.737-.558-2.618.748-2.627,2.083-.011,1.369,1.7,1.759,1.918,1.769a.235.235,0,0,0,.27-.111,12.064,12.064,0,0,0,.539-1.209c.26-.679.588-2.011-.1-2.533m14.351,7.381c1.138-1.56,4.274-7.025,4.274-7.025a.461.461,0,0,0-.418-.4c-.435-.02-1.153.126-2.6,1.928a33.706,33.706,0,0,0-3.367,4.729c-.891,1.626-1.281,2.776-.77,3.086a.755.755,0,0,0,.538.055,3.221,3.221,0,0,0,1.369-1.109c.28-.323.6-.755.969-1.263m12.658-8.461H54.674L53.165,76.7h2.673Zm35.16,18.269a.982.982,0,0,0-.98.983.985.985,0,0,0,.286.7.957.957,0,0,0,.694.285.971.971,0,0,0,.98-.99.944.944,0,0,0-.284-.694.955.955,0,0,0-.7-.289m1.14.983a1.139,1.139,0,1,1-2.278,0,1.144,1.144,0,0,1,1.138-1.138,1.105,1.105,0,0,1,.807.334,1.079,1.079,0,0,1,.333.8m-.843-.247a.2.2,0,0,0-.084-.185.561.561,0,0,0-.264-.048h-.19v.456h.2a.83.83,0,0,0,.21-.024.214.214,0,0,0,.128-.2m-.755-.382h.436a.992.992,0,0,1,.339.045.307.307,0,0,1,.2.317.263.263,0,0,1-.124.245.472.472,0,0,1-.18.067.29.29,0,0,1,.215.119.368.368,0,0,1,.067.2v.09c0,.03,0,.059,0,.091s0,.057.011.065l.006.017h-.205a.047.047,0,0,0,0-.012c-.007-.005-.007-.005-.007-.014l0-.043v-.1c0-.143-.037-.241-.119-.283a.481.481,0,0,0-.242-.044h-.177v.495h-.216Zm4.774-23.017a12.177,12.177,0,0,1-7.348,2.17c-.666.691-1.379,1.487-2.095,2.357,4.566.9,8.56-1.928,10.685-4.338a14.268,14.268,0,0,0,1.981-2.845,17.748,17.748,0,0,1-3.224,2.655M89,90.6c-.379.607-.808,1.766.442,1.042,1.523-.881,3.691-4.172,3.691-4.172h.98a32.863,32.863,0,0,1-2.978,3.912C89.593,93.1,87.71,94.65,86.384,94.5c-1.549-.179-1.064-2.213-1.064-2.213s-2.224,2.36-3.751,2.191c-2.069-.228-1.44-2.789-1.44-2.789s-2.339,2.88-3.933,2.789c-2.5-.144-1.877-3.2-1.181-5.33.373-1.145.718-2.048.718-2.048s-.249.065-.781.143c-.278.041-.787.068-.787.068a33.949,33.949,0,0,1-1.872,2.945c-.832,1.107-4.373,4.913-6.459,4.152-1.925-.7-1.291-3.655-.169-6,1.636-3.417,6.237-8.33,8.892-7.686,2.752.665.065,5.691.065,5.691s0,.018.029.029a1.169,1.169,0,0,0,.531-.028,5.706,5.706,0,0,0,1.007-.3,58.459,58.459,0,0,1,5.82-9.589c3.055-3.794,9.151-10.324,11.548-8.745.586.386.318,1.725-.469,3.349a11.021,11.021,0,0,1-1.081.284,8.74,8.74,0,0,0,.98-2.327c.358-1.96-4.214,2.171-7.48,6.617a61.409,61.409,0,0,0-5.226,8.471,14.1,14.1,0,0,0,1.685-1.2,49.054,49.054,0,0,0,4.151-3.877,45.432,45.432,0,0,0,3.531-4.079,9.786,9.786,0,0,0,1.04-.107,44.773,44.773,0,0,1-3.9,4.607c-1.3,1.317-2.712,2.739-3.94,3.773a32.536,32.536,0,0,1-3.455,2.57s-2.865,5.761-1.307,6.132c.913.218,2.718-2.564,2.718-2.564a64.271,64.271,0,0,1,3.773-5.212c1.936-2.205,3.6-3.476,5.268-3.5A1.989,1.989,0,0,1,91.4,81.727l.457-.706h2.813S89.418,89.933,89,90.6M73.186,87.095a5.843,5.843,0,0,1-1.293-.824,4.239,4.239,0,0,1-.975-1.178c-.025-.046-.053-.01-.081.028s-.142.139-1.147,1.613-2.541,4.518-1.144,5.034c.892.33,2.378-1.232,3.189-2.269a19.4,19.4,0,0,0,1.5-2.277c.038-.088,0-.109-.046-.127m1.42-2.489c.26-.679.588-2.011-.1-2.532-.738-.558-2.618.748-2.628,2.083a2.316,2.316,0,0,0,1.648,2.074c.183.049.245.042.334-.1a11.911,11.911,0,0,0,.746-1.519m16.15-1.881a.962.962,0,0,0,.085-.189.461.461,0,0,0-.418-.4c-.435-.02-1.03.063-2.581,1.784a23.342,23.342,0,0,0-3.3,4.692c-.889,1.628-1.247,2.839-.736,3.149a.757.757,0,0,0,.537.056c.348-.085.738-.407,1.338-1.1.28-.324.59-.784.962-1.293,1.023-1.4,3.6-5.812,4.116-6.7m6.069-12.861a12.177,12.177,0,0,1-7.348,2.17c-.666.691-1.379,1.487-2.095,2.357,4.566.9,8.56-1.928,10.685-4.338a14.268,14.268,0,0,0,1.981-2.845,17.748,17.748,0,0,1-3.224,2.655M84,73.174c-2.16-1.105-3.736-2.458-5.379-3.3a6.141,6.141,0,0,0-3.846-.969,3.745,3.745,0,0,0-.524.129s.655,2.226-1.938,5.972c-2.628,3.793-5.013,3.773-5.69,2.725-.71-1.1.2-3.343,1.735-5.338a19.219,19.219,0,0,1,4.418-3.822s-.9-.548-3.1.7a31.031,31.031,0,0,0-9.286,9.005c-3.428,4.889-4.112,7.579-4.608,9.7s-.042,4.382,2.308,4.382,5.078-3.582,5.847-4.829c1.432-2.319,2.365-5.877.417-5.386a4.089,4.089,0,0,0-2.229,2.331,9.832,9.832,0,0,0-.705,2.058,8.113,8.113,0,0,0-1.9,1.106,14.2,14.2,0,0,0-1.8,1.6A11.281,11.281,0,0,1,59.063,84.8a7.228,7.228,0,0,1,5.226-4.109c1.265-.1,2.909.97,1.517,4.931s-5.5,8.766-9.82,8.83c-3.985.057-6.6-5.03-1.054-13.908,6.132-9.82,13.34-12.833,15.678-13.171s3.1.7,3.1.7a10.034,10.034,0,0,1,4.446-.738c2.856.194,5.067,2.214,7.979,3.632-.762.738-1.485,1.495-2.135,2.207M73.361,69.326a11.077,11.077,0,0,0-3.613,2.807c-1.949,2.149-3.072,4.554-2.234,5.19.32.243,1.061.285,2.409-.927a10.657,10.657,0,0,0,2.847-3.952,5.385,5.385,0,0,0,.591-3.118" transform="translate(-10.931 -67.199)" fill="#1a1818"/>
            </g>
          </g>
        </g>
      </g>
    </g>
  </g>
</svg>
