<svg xmlns="http://www.w3.org/2000/svg" width="18" height="16.025" viewBox="0 0 18 16.025">
  <path id="martini-glass-citrus-light" d="M9.515,15.024h-2.5V11.211l5.878-6.366a.5.5,0,0,0,.091-.54.506.506,0,0,0-.46-.3H.473a.5.5,0,0,0-.34.839L6.01,11.211v3.812h-2.5a.477.477,0,0,0-.473.5.5.5,0,0,0,.473.5H9.487a.478.478,0,0,0,.473-.5A.428.428,0,0,0,9.515,15.024ZM1.645,5.008h9.731L6.511,10.279ZM13.522,0A4.512,4.512,0,0,0,9.578,2.324a.5.5,0,1,0,.875.485,3.506,3.506,0,1,1,1.754,4.948.5.5,0,0,0-.376.929A4.5,4.5,0,1,0,13.522,0Z" transform="translate(-0.001)" fill="#fff"/>
</svg>
