<svg xmlns="http://www.w3.org/2000/svg" xmlns:xlink="http://www.w3.org/1999/xlink" width="24.244" height="48" viewBox="0 0 24.244 48">
  <defs>
    <clipPath id="clip-path">
      <rect id="Rectangle_50" data-name="Rectangle 50" width="24.244" height="48" transform="translate(0 0)"/>
    </clipPath>
  </defs>
  <g id="Shaker" transform="translate(0 0.003)">
    <g id="Group_204" data-name="Group 204" transform="translate(0 -0.003)" clip-path="url(#clip-path)">
      <path id="Path_48" data-name="Path 48" d="M17.6,6.731l0-1.839h0A4.932,4.932,0,0,0,16.159,1.43,4.868,4.868,0,0,0,12.7,0H11.29a4.9,4.9,0,0,0-4.9,4.9V6.733L4.426,7.86,4.4,7.874A7.217,7.217,0,0,0,.8,14.111V16h0a.8.8,0,0,0-.8.8l0,4.8a.8.8,0,0,0,.8.8H.845L1.1,26.93h0A82.5,82.5,0,0,0,4.152,45l.693,2.422a.8.8,0,0,0,.769.58l12.8-.006h0a.8.8,0,0,0,.772-.583l.691-2.423h0A82.492,82.492,0,0,0,22.913,26.92l.248-4.53h.284a.8.8,0,0,0,.8-.8l0-4.8a.8.8,0,0,0-.8-.8H23.2V14.1h0a7.218,7.218,0,0,0-3.632-6.25ZM7.994,4.9a3.3,3.3,0,0,1,3.3-3.3H12.7a3.28,3.28,0,0,1,2.332.963,3.318,3.318,0,0,1,.967,2.33v1.5h-8ZM21.313,26.833h0a80.969,80.969,0,0,1-2.977,17.715l-.525,1.846L6.218,46.4,5.69,44.557A81.062,81.062,0,0,1,2.7,26.843L2.45,22.4l19.107-.013Zm1.329-6.043L1.6,20.8V17.6l20.8-.01h.238ZM21.6,14.107v1.885L2.4,16V14.113A5.615,5.615,0,0,1,5.2,9.262l.018-.01L7.411,8l9.176,0,2.191,1.25h0a5.618,5.618,0,0,1,2.82,4.862Z" transform="translate(0 0.003)"/>
    </g>
  </g>
</svg>
