<svg id="Group_260" data-name="Group 260" xmlns="http://www.w3.org/2000/svg" xmlns:xlink="http://www.w3.org/1999/xlink" width="205.505" height="100" viewBox="0 0 205.505 100">
  <defs>
    <clipPath id="clip-path">
      <rect id="Rectangle_84" data-name="Rectangle 84" width="205.505" height="100" fill="none"/>
    </clipPath>
    <clipPath id="clip-path-3">
      <rect id="Rectangle_82" data-name="Rectangle 82" width="100" height="100" fill="none"/>
    </clipPath>
  </defs>
  <g id="Group_259" data-name="Group 259" clip-path="url(#clip-path)">
    <g id="Group_258" data-name="Group 258">
      <g id="Group_257" data-name="Group 257" clip-path="url(#clip-path)">
        <g id="Group_256" data-name="Group 256" style="mix-blend-mode: multiply;isolation: isolate">
          <g id="Group_255" data-name="Group 255">
            <g id="Group_254" data-name="Group 254" clip-path="url(#clip-path-3)">
              <path id="Path_108" data-name="Path 108" d="M100,50A50,50,0,1,1,50,0a50,50,0,0,1,50,50" transform="translate(0 0)" fill="#1a1818"/>
            </g>
          </g>
        </g>
        <path id="Path_109" data-name="Path 109" d="M278,82.533c-3.716-3.656-18.273-23.075-31.305-40.6,13.114-4.865,17.8-11.278,19.033-18.726C267.332,12.961,259.85-1.807,242.67.182a25.37,25.37,0,0,0-14.321,7.2,20.524,20.524,0,0,0-6.09,15.5c.26,6.217,3.223,11.99,7.209,16.7,0,0,.049-.007,26.714,35.4-15.9,23.247-36.895,17.324-44.484,6.477-6.95-9.928-7.563-30.78,17.782-35.567l-2.03-2.671a37.686,37.686,0,0,0-14.528,4.836,26.719,26.719,0,0,0-13.252,25.019c.767,9.432,4.45,16.1,10.656,21.16a26.9,26.9,0,0,0,21.426,5.386c8.123-1.349,14.679-5.9,20.028-11.988a61.943,61.943,0,0,0,6.787-9.755c7.59,9.167,14.671,17.067,18.421,19.57,3.662,2.447,9.513,2.732,11.932,2.464,9.393-1.042,11.035-7.1,11.035-7.1C288.583,95.2,282.6,87.063,278,82.533m-39.793-52a30.308,30.308,0,0,1-3.652-6.28,20.742,20.742,0,0,1-1.5-5.516,17.054,17.054,0,0,1,.073-4.677,16.487,16.487,0,0,1,1.066-3.768,13.516,13.516,0,0,1,3.467-4.971,12.489,12.489,0,0,1,5.229-2.744,15.141,15.141,0,0,1,4.312-.471c8.039.275,18.13,9,15.981,20.682-2.139,11.623-14.059,15.492-18.717,16.137-.492-.493-3.932-5.252-6.26-8.392" transform="translate(-94.468 0)" fill="#1a1818"/>
        <path id="Path_110" data-name="Path 110" d="M355.653,58.17C340.263,59.824,330.207,73,323.495,85.764c-.049.088-.452.927-.6,1.225l2.015,2.648.231-.464c3.581-6.758,14.906-24.618,33.2-20.247V58.008c-.921.019-1.823.07-2.689.162" transform="translate(-152.837 -27.457)" fill="#1a1818"/>
        <path id="Path_111" data-name="Path 111" d="M49.546,95.15a11.71,11.71,0,0,0-7.087-2.065A4.348,4.348,0,0,0,39,94.962c-1.077-1.877-3.2-3.028-6.492-3-5.309.063-10.579,2.515-14.751,2.515-4.006,0-6.924-2.515-6.828-6.982C11.1,79.662,17.718,72.6,22.666,69.425c2.842-1.827,5.224-2.369,6.781-2.2A2.274,2.274,0,0,1,31.089,70.6c-1.265,2.834-3.014,2.6-2.951,1.243A2.247,2.247,0,0,1,29.2,70.108a2.152,2.152,0,0,1,1.031-.254c.249-.212.441-1.761-1.6-1.25s-4.488,2.513-6.827,5.092-5.975,7.47-6.874,12.6c-.417,2.38-.136,6.714,5.5,6.664,4.776-.041,11.829-3.189,18.306-3.134a12.371,12.371,0,0,1,6.408,1.753,17.7,17.7,0,0,1,4.4,3.571m1.53-14.2h.98s-4.907,7.1-7.681,6.774c-1.549-.179-1.091-2.091-1.091-2.091s-2.179,2.547-4.168,2.038c-1.812-.462-.645-3.477-.645-3.477-.206.084-4.125,4.506-6.878,3.446-2.88-1.11-1.389-4.811-.839-5.923.463-.937.977-1.852.977-1.852s-.442.126-.717.189-.692.144-.692.144-1.363,2.217-2.2,3.323-4.373,4.909-6.459,4.15-1.573-3.674-.4-5.994c1.9-3.762,6.411-8.383,9.125-7.691,2.744.7.474,5.151.474,5.151s.547.07,1.855-.822c1.885-1.285,4.366-4.744,7.059-4.341,1.264.19,2.442,1.488.833,3.951-.516.791-1.38,1.5-2.044.8-.411-.433-.053-1.227.379-1.77a1.7,1.7,0,0,1,1.454-.664s.442-1.023-.685-1c-.917.017-3.233,2.152-4.541,4.31-1.2,1.98-3.017,5.354-1.191,6.089,1.675.674,4.858-3.107,6.333-5.089s4.829-6.475,7.649-6.659a1.881,1.881,0,0,1,1.549.822l.327-.516h2.813s-5.305,8.864-5.721,9.536c-.326.526-.758,1.706.443,1.042s3.7-3.877,3.7-3.877m-21.849-.9a6.227,6.227,0,0,1-1.45-.663,3.092,3.092,0,0,1-1.037-1.146c-.024-.046-.052-.011-.081.028s-.175.229-1.18,1.7-2.494,4.5-1.1,5.011c.893.331,2.392-1.238,3.2-2.275a25.872,25.872,0,0,0,1.687-2.533c.039-.087,0-.109-.045-.127m1.113-4.711c-.737-.559-2.618.748-2.627,2.083-.011,1.369,1.7,1.759,1.918,1.769a.235.235,0,0,0,.27-.111,12.171,12.171,0,0,0,.539-1.208c.26-.68.588-2.012-.1-2.533m14.351,7.382c1.138-1.56,4.275-7.025,4.275-7.025a.461.461,0,0,0-.418-.4c-.434-.02-1.153.126-2.6,1.928a33.666,33.666,0,0,0-3.367,4.729c-.891,1.626-1.281,2.775-.77,3.086a.753.753,0,0,0,.538.055,3.222,3.222,0,0,0,1.369-1.108c.28-.323.6-.756.969-1.263m12.658-8.461H54.674L53.165,76.7h2.673Zm35.16,18.269a.982.982,0,0,0-.98.983.986.986,0,0,0,.286.7.957.957,0,0,0,.694.285.97.97,0,0,0,.7-.285.98.98,0,0,0,.284-.7.944.944,0,0,0-.284-.694.956.956,0,0,0-.7-.289m1.14.983a1.139,1.139,0,1,1-2.278,0,1.144,1.144,0,0,1,1.138-1.139,1.107,1.107,0,0,1,.807.334,1.08,1.08,0,0,1,.333.8m-.843-.247a.2.2,0,0,0-.084-.185.56.56,0,0,0-.264-.048h-.19v.457h.2a.828.828,0,0,0,.21-.024.215.215,0,0,0,.128-.2m-.755-.381h.436a.988.988,0,0,1,.339.044.307.307,0,0,1,.2.317.263.263,0,0,1-.124.245.465.465,0,0,1-.18.068.29.29,0,0,1,.215.119.367.367,0,0,1,.067.2v.089c0,.03,0,.059,0,.092s0,.057.011.065l.006.018h-.205a.048.048,0,0,0,0-.012c-.007-.006-.007-.006-.007-.014l0-.042v-.1c0-.143-.037-.241-.119-.283a.484.484,0,0,0-.242-.044h-.177v.494h-.216Zm4.774-23.017a12.176,12.176,0,0,1-7.348,2.17c-.666.691-1.379,1.487-2.095,2.358,4.566.9,8.559-1.927,10.685-4.337a14.264,14.264,0,0,0,1.981-2.845,17.753,17.753,0,0,1-3.224,2.655M89,90.6c-.379.607-.808,1.767.442,1.043,1.523-.881,3.691-4.172,3.691-4.172h.98a32.886,32.886,0,0,1-2.978,3.912C89.593,93.1,87.71,94.65,86.384,94.5c-1.549-.179-1.064-2.213-1.064-2.213s-2.224,2.36-3.752,2.191c-2.069-.228-1.44-2.788-1.44-2.788s-2.339,2.879-3.933,2.788c-2.5-.144-1.877-3.2-1.181-5.33.373-1.145.718-2.048.718-2.048s-.249.066-.781.144c-.278.041-.787.068-.787.068a33.962,33.962,0,0,1-1.872,2.945c-.832,1.107-4.373,4.913-6.459,4.152-1.925-.7-1.291-3.654-.169-6,1.636-3.417,6.237-8.33,8.892-7.687,2.752.665.065,5.691.065,5.691s0,.018.029.03a1.187,1.187,0,0,0,.532-.028,5.732,5.732,0,0,0,1.007-.3,58.45,58.45,0,0,1,5.82-9.589c3.055-3.794,9.151-10.325,11.548-8.745.586.385.318,1.724-.469,3.348a10.653,10.653,0,0,1-1.081.284,8.732,8.732,0,0,0,.98-2.326c.358-1.961-4.214,2.17-7.48,6.617a61.418,61.418,0,0,0-5.226,8.47,14.113,14.113,0,0,0,1.685-1.2,48.972,48.972,0,0,0,4.151-3.877,45.384,45.384,0,0,0,3.531-4.079,9.578,9.578,0,0,0,1.04-.107,44.75,44.75,0,0,1-3.9,4.607c-1.3,1.318-2.712,2.739-3.94,3.772a32.511,32.511,0,0,1-3.456,2.57s-2.865,5.761-1.307,6.132c.913.218,2.718-2.563,2.718-2.563a64.3,64.3,0,0,1,3.773-5.212c1.936-2.205,3.6-3.476,5.268-3.5A1.99,1.99,0,0,1,91.4,81.727l.457-.706h2.813S89.418,89.933,89,90.6M73.186,87.094a5.8,5.8,0,0,1-1.293-.824,4.256,4.256,0,0,1-.975-1.177c-.025-.046-.053-.011-.08.028s-.142.138-1.147,1.613-2.541,4.517-1.144,5.034c.892.33,2.378-1.233,3.189-2.27a19.413,19.413,0,0,0,1.5-2.277c.038-.088,0-.109-.046-.127m1.42-2.488c.26-.679.588-2.011-.1-2.532-.738-.558-2.618.749-2.628,2.083a2.316,2.316,0,0,0,1.648,2.074c.183.049.245.042.334-.1a11.937,11.937,0,0,0,.746-1.519m16.15-1.881a.963.963,0,0,0,.085-.188.46.46,0,0,0-.418-.4c-.435-.02-1.03.063-2.581,1.785a23.334,23.334,0,0,0-3.3,4.692c-.889,1.628-1.247,2.838-.736,3.149a.759.759,0,0,0,.537.057c.348-.085.738-.407,1.338-1.1.28-.324.59-.785.962-1.293,1.023-1.4,3.6-5.813,4.116-6.7m6.069-12.862a12.176,12.176,0,0,1-7.348,2.17c-.666.691-1.379,1.487-2.095,2.358,4.566.9,8.559-1.927,10.685-4.337a14.264,14.264,0,0,0,1.981-2.845,17.753,17.753,0,0,1-3.224,2.655M84,73.174c-2.16-1.106-3.736-2.457-5.379-3.3a6.14,6.14,0,0,0-3.846-.969,3.728,3.728,0,0,0-.524.129s.655,2.226-1.938,5.972c-2.628,3.793-5.013,3.773-5.69,2.725-.711-1.1.2-3.343,1.735-5.338a19.216,19.216,0,0,1,4.418-3.822s-.9-.548-3.1.7a31.043,31.043,0,0,0-9.286,9.005c-3.428,4.889-4.112,7.579-4.608,9.7s-.042,4.383,2.308,4.383,5.078-3.582,5.847-4.829c1.431-2.319,2.365-5.877.417-5.386a4.092,4.092,0,0,0-2.229,2.331,9.841,9.841,0,0,0-.705,2.058,8.11,8.11,0,0,0-1.9,1.106,14.233,14.233,0,0,0-1.8,1.6,11.281,11.281,0,0,1,1.354-4.43,7.228,7.228,0,0,1,5.226-4.109c1.265-.1,2.909.97,1.517,4.931s-5.5,8.766-9.82,8.83c-3.985.058-6.6-5.029-1.054-13.908,6.132-9.82,13.34-12.833,15.678-13.171s3.1.695,3.1.695a10.036,10.036,0,0,1,4.446-.738c2.856.194,5.067,2.214,7.979,3.632-.762.739-1.485,1.5-2.135,2.208M73.361,69.326a11.084,11.084,0,0,0-3.613,2.807c-1.949,2.148-3.072,4.553-2.234,5.19.32.243,1.061.284,2.409-.928a10.657,10.657,0,0,0,2.847-3.951,5.386,5.386,0,0,0,.591-3.118" transform="translate(-5.174 -31.807)" fill="#fff"/>
      </g>
    </g>
  </g>
</svg>
