<svg id="Group_247" data-name="Group 247" xmlns="http://www.w3.org/2000/svg" xmlns:xlink="http://www.w3.org/1999/xlink" width="96.456" height="50" viewBox="0 0 96.456 50">
  <defs>
    <clipPath id="clip-path">
      <rect id="Rectangle_78" data-name="Rectangle 78" width="96.456" height="50"/>
    </clipPath>
  </defs>
  <g id="Group_249" data-name="Group 249" clip-path="url(#clip-path)">
    <path id="Path_94" data-name="Path 94" d="M76.782,35.428a5.007,5.007,0,0,1,5,4.783H92.249L81.974,1.2A1.6,1.6,0,0,0,80.423,0H73.585a1.6,1.6,0,0,0-1.551,1.2L61.84,40.211h9.942a5.006,5.006,0,0,1,5-4.783M73.593,28.19l2.823-15.321a.4.4,0,0,1,.789,0l2.752,15.324a1,1,0,0,1-.986,1.179H74.578a1,1,0,0,1-.986-1.183M57.758,0a1.4,1.4,0,0,1,1.4,1.4V40.211H49.428a5.011,5.011,0,1,0-6.608,0H33.088V1.4a1.4,1.4,0,0,1,1.4-1.4h6.154a1.4,1.4,0,0,1,1.4,1.4V24.2a1.2,1.2,0,0,0,1.2,1.2H49a1.2,1.2,0,0,0,1.2-1.2V1.4A1.4,1.4,0,0,1,51.6,0h6.154M14.941,35.428a5.006,5.006,0,0,1,5,4.783H30.409L20.134,1.2A1.6,1.6,0,0,0,18.583,0H11.744a1.6,1.6,0,0,0-1.551,1.2L0,40.211H9.942a5.006,5.006,0,0,1,5-4.783M11.752,28.19l2.823-15.321a.4.4,0,0,1,.789,0l2.752,15.324a1,1,0,0,1-.986,1.179H12.738a1,1,0,0,1-.986-1.183m3.177,21.164.289-.511a.159.159,0,0,1,.209-.037,1.842,1.842,0,0,0,.874.338.386.386,0,0,0,.425-.369c0-.258-.215-.455-.634-.622-.529-.209-1.194-.622-1.194-1.36a1.277,1.277,0,0,1,1.422-1.225,2.288,2.288,0,0,1,1.317.462.156.156,0,0,1,.037.2l-.314.474c-.043.068-.154.123-.209.08a1.931,1.931,0,0,0-.88-.369.357.357,0,0,0-.388.314c0,.228.185.4.671.6s1.243.566,1.243,1.4A1.352,1.352,0,0,1,16.345,50a1.956,1.956,0,0,1-1.385-.474c-.061-.062-.08-.086-.031-.172m4.19-3.607a.117.117,0,0,1,.117-.117h1.483a1.373,1.373,0,1,1,.006,2.745h-.646v1.447a.121.121,0,0,1-.117.117h-.726a.117.117,0,0,1-.117-.117Zm1.545,1.729a.483.483,0,0,0,.486-.486.469.469,0,0,0-.486-.455h-.585v.941Zm1.768,2.3,1.927-4.142a.125.125,0,0,1,.1-.068h.061a.124.124,0,0,1,.1.068l1.927,4.142a.109.109,0,0,1-.1.16h-.683c-.111,0-.16-.037-.215-.154l-.222-.486H23.657l-.221.492a.23.23,0,0,1-.222.148h-.677a.109.109,0,0,1-.1-.16m2.53-1.317-.468-1.016h-.006l-.462,1.016Zm2.667-2.715a.117.117,0,0,1,.117-.117h1.84a1.315,1.315,0,0,1,.431,2.567l.843,1.563a.117.117,0,0,1-.1.179h-.819a.114.114,0,0,1-.1-.055l-.819-1.631h-.425v1.569a.121.121,0,0,1-.117.117h-.733a.117.117,0,0,1-.117-.117Zm1.877,1.723a.494.494,0,0,0,.468-.493.471.471,0,0,0-.468-.468h-.911v.96Zm2.8-1.693a.146.146,0,0,1,.148-.148h.72a.15.15,0,0,1,.148.148V47.4l1.366-1.7a.182.182,0,0,1,.117-.062h.776a.142.142,0,0,1,.111.228l-1.44,1.8L35.816,49.7a.144.144,0,0,1-.117.228h-.849a.169.169,0,0,1-.111-.043l-1.422-1.932v1.834a.15.15,0,0,1-.148.148h-.72a.146.146,0,0,1-.148-.148Zm4.657-.031a.117.117,0,0,1,.117-.117h.732a.121.121,0,0,1,.117.117v3.287H39.39a.117.117,0,0,1,.117.117v.671a.117.117,0,0,1-.117.117H37.075a.117.117,0,0,1-.117-.117Zm3.656,0a.121.121,0,0,1,.117-.117h.738a.121.121,0,0,1,.117.117v4.075a.121.121,0,0,1-.117.117h-.738a.121.121,0,0,1-.117-.117Zm2.559-.068a.116.116,0,0,1,.117-.111h.154L45.9,47.932h.006V45.747a.117.117,0,0,1,.117-.117h.738a.121.121,0,0,1,.117.117v4.142a.116.116,0,0,1-.117.111h-.1a.181.181,0,0,1-.08-.031l-2.431-2.444h-.006v2.3a.117.117,0,0,1-.117.117H43.3a.121.121,0,0,1-.117-.117Zm7.228-.1a2.377,2.377,0,0,1,1.5.579.108.108,0,0,1,.012.166l-.486.517a.13.13,0,0,1-.166.006,1.132,1.132,0,0,0-.806-.3,1.234,1.234,0,0,0,.006,2.468,1.459,1.459,0,0,0,.548-.1V48.56h-.388a.112.112,0,0,1-.117-.111V47.84a.113.113,0,0,1,.117-.117h1.237a.116.116,0,0,1,.111.117l.006,1.656a.152.152,0,0,1-.049.1,3.111,3.111,0,0,1-1.526.4,2.21,2.21,0,1,1,0-4.419m4.631.2a.107.107,0,0,1,.111-.148h.72a.126.126,0,0,1,.111.086L56.5,47.8h.025l.954-2.167a.117.117,0,0,1,.1-.068H57.7a.1.1,0,0,1,.1.068l.954,2.167h.025l.529-2.087a.126.126,0,0,1,.111-.086h.72a.107.107,0,0,1,.111.148l-1.163,4.136a.118.118,0,0,1-.111.086h-.1a.125.125,0,0,1-.1-.068l-1.126-2.518H57.63l-1.12,2.518a.125.125,0,0,1-.1.068h-.1a.118.118,0,0,1-.111-.086Zm5.651,4,1.927-4.142a.125.125,0,0,1,.1-.068h.062a.125.125,0,0,1,.1.068l1.927,4.142a.109.109,0,0,1-.1.16H64.02c-.111,0-.16-.037-.215-.154l-.222-.486H61.909l-.222.492a.23.23,0,0,1-.222.148h-.677a.109.109,0,0,1-.1-.16m2.53-1.317-.468-1.016h-.006l-.462,1.016Zm2.937-1.927h-.88a.117.117,0,0,1-.117-.117v-.671a.117.117,0,0,1,.117-.117H68a.117.117,0,0,1,.117.117v.671a.117.117,0,0,1-.117.117h-.88v3.287a.121.121,0,0,1-.117.117h-.739a.121.121,0,0,1-.117-.117Zm3.087-.788a.117.117,0,0,1,.117-.117H71.9a.117.117,0,0,1,.117.117v.671a.117.117,0,0,1-.117.117H70.2V47.3h1.4a.121.121,0,0,1,.117.117v.671a.117.117,0,0,1-.117.117H70.2v.831H71.9a.117.117,0,0,1,.117.117v.671a.117.117,0,0,1-.117.117H69.354a.117.117,0,0,1-.117-.117Zm4.213,0a.117.117,0,0,1,.117-.117h1.841a1.315,1.315,0,0,1,.431,2.567l.843,1.563a.117.117,0,0,1-.1.179h-.819a.114.114,0,0,1-.1-.055l-.819-1.631h-.425v1.569a.121.121,0,0,1-.117.117h-.732a.117.117,0,0,1-.117-.117Zm1.877,1.723a.494.494,0,0,0,.468-.493.471.471,0,0,0-.468-.468h-.911v.96ZM94.6,39.728a1.86,1.86,0,1,1,1.86-1.86,1.862,1.862,0,0,1-1.86,1.86m0-3.582a1.721,1.721,0,1,0,1.721,1.721A1.723,1.723,0,0,0,94.6,36.146m-.667.81a.053.053,0,0,1,.054-.051H94.8a.573.573,0,0,1,.2,1.123l.392.684a.051.051,0,0,1-.048.078h-.3A.049.049,0,0,1,95,38.766l-.38-.714H94.3v.687a.055.055,0,0,1-.054.051h-.263a.052.052,0,0,1-.054-.051Zm.84.808a.283.283,0,0,0,.283-.275.277.277,0,0,0-.283-.261H94.3v.536Z"/>
  </g>
</svg>
