<svg id="Group_246" data-name="Group 246" xmlns="http://www.w3.org/2000/svg" xmlns:xlink="http://www.w3.org/1999/xlink" width="170.49" height="50" viewBox="0 0 170.49 50">
  <defs>
    <clipPath id="clip-path">
      <rect id="Rectangle_75" data-name="Rectangle 75" width="170.49" height="50"/>
    </clipPath>
  </defs>
  <g id="Group_246-2" data-name="Group 246" clip-path="url(#clip-path)">
    <path id="Path_75" data-name="Path 75" d="M41.507,8.962a2.678,2.678,0,0,1,.214.252,8.729,8.729,0,0,0-1.054-.048H38.233V19.3l-.75.043-.372.023V8.036l1.477,0a3.944,3.944,0,0,1,2.919.928M53,13.985c.012-3.456-.685-6-2.142-7.765a17.112,17.112,0,0,1,1.109,6.532c-.018,5.315-1.547,9.2-4.669,11.853l5.621,16.889c-1.327.112-5.539.474-6.969.605l.333,1.1c2.436-.24,5.909-.513,8.159-.706L48.592,24.918c2.978-2.56,4.389-6.3,4.4-10.933M37.116,27.513h-.006V43.059c-1.61.182-4.23.5-5.979.727v1.14c2.319-.32,4.637-.579,7.1-.858V28.707l.9-.053-.374-1.238c-.559.035-1.111.067-1.641.1M22.244,28.635c-2.847.228-6.8.559-9.717.825V46.734c-1.313.243-4.638.859-5.955,1.113V49.02c2.3-.469,4.771-.918,7.077-1.345V30.516q4.857-.45,9.717-.838V23.89c-.374.028-.748.06-1.122.088ZM24.192,8.027H12.528V21.189L13.65,21.1V9.156H25.314v-6.2H24.192Zm42.6,19.381C70.2,27.33,73.6,27.3,77.01,27.265v-5.8c-.374,0-.748.01-1.122.015v4.667c-2.982.03-7.157.089-10.222.153v5.983c.378-.015.748-.027,1.123-.04ZM77.8,8.045H65.666V18.21l1.123-.02V9.175h12.13V2.954H77.8Zm-.026,32.277c-5.753.077-12.373.314-18.06.649V42.1c6.407-.412,12.767-.567,19.183-.663V35.393c-.376,0-.747.012-1.122.018Zm41.142-6.038a30.153,30.153,0,0,1-.418-5.609V12.935c0-5.139.92-5.691,3.081-5.748a2.859,2.859,0,0,0-3.137.13c-.717.72-1.076,2.454-1.066,5.154V26.417c.018,5.269.691,7.159,1.54,7.867m13.316-4.433c0,4.726-1.073,8.216-3.237,10.389a9.958,9.958,0,0,1-7.352,2.676c-.583,0-1.2-.032-1.83-.095a18.214,18.214,0,0,1-4.275-.9,13.074,13.074,0,0,0,6.154,1.892c7.08.706,11.662-4.5,11.662-12.7V28.46l-1.122-.069Zm0-17.59v4.8c-1.486-.072-4.251-.2-5.893-.272v1.145c2.325.1,4.693.2,7.016.313V14.524a15.153,15.153,0,0,0-1.888-8.062,20.382,20.382,0,0,1,.766,5.8m15.889,8.86-.518-3.3-.818,5.344,1.01.082Zm10.653,3.093L155.189,2.932l-1.138.038,3.6,21.137,1.124.107m-13.235,7.094L143.4,45.227c-1.595-.25-4.255-.655-5.786-.874l-.2,1.151c2.342.318,4.637.655,6.928,1.014l2.143-14c1.154.094,2.308.2,3.463.295l-.181-1.146c-1.311-.116-2.692-.233-4.24-.361m18.492,2.836-1.047-6.229-1.207-.107.892,5.077-3.585-.334,2.725,16.013c-1.6-.325-4.89-.964-6.529-1.265l.218,1.188c2.352.436,5.356,1.036,7.7,1.514l-2.752-16.178ZM94.5,7.347a3.05,3.05,0,0,0-2-.553c-.619,0-2.6.2-2.6,2.837a4.522,4.522,0,0,0,1.115,3.119c-.921-4.662,1.208-5.538,3.488-5.4M90.349,30.559V28.328l-1.117.323A5.218,5.218,0,0,0,90.5,32.439a11.131,11.131,0,0,1-.151-1.881m14.535-.809a11.186,11.186,0,0,1-3.235,8.109,12.248,12.248,0,0,1-8.791,3.256c-.163,0-.329,0-.495-.007a15.522,15.522,0,0,1-4.954-.875,10.728,10.728,0,0,0,6.424,1.711c7.059,0,11.556-4.733,11.556-10.685a11.6,11.6,0,0,0-.886-4.682,13.036,13.036,0,0,1,.381,3.173m.461-18.025a9.727,9.727,0,0,0-1.563-5.584,12.348,12.348,0,0,1,.44,3.322v3.748L98.8,13.132v1.129l6.548.095ZM103.756,29.75c0,5.952-4.274,10.432-11.359,10.228C85.473,39.8,81.741,35.99,81.6,29.172V27.957l6.5-1.888V28.3c0,3.992,1.695,6.033,4.714,6.1,2.482.06,4.058-1.966,4.058-4.545,0-3.407-2.835-5.5-6.586-7.853C85.751,19.159,81.9,15.557,81.9,9.97,81.9,3.843,86.048.015,92.721.013,98.8,0,103.077,3.16,103.093,9.467v2.6l-6.547-.093V10.179c-.007-3.488-1.762-4.5-4.045-4.512a3.615,3.615,0,0,0-3.732,3.966c0,3.7,2.694,5.278,6.678,7.872,4.551,2.964,8.308,6.439,8.308,12.246M120.148,0c-7.381,0-11,3.921-10.978,12.124V27.2c.027,9.436,2.57,13.7,10.753,14.5,7.08.706,11.209-2.732,11.177-11.846V26.2c-2.7-.167-4.659-.282-7.016-.415v4.32c.016,4.429-1.414,5.976-3.83,5.767-2.833-.242-3.985-2.18-4.01-9.458V12.476c-.019-5.307,1.282-6.824,3.9-6.824,2.8,0,3.939,2.334,3.939,6.539v3.372c2.325.1,4.693.2,7.016.313V12.265C131.072,4.378,127.733-.009,120.148,0m41.114,31.671c-.982-.1-2.558-.292-3.54-.389l2.7,15.846c-2.346-.479-4.93-.936-7.283-1.37l-2.378-15.135q-3.088-.278-6.176-.526l-2.118,13.84c-2.292-.359-4.585-.7-6.928-1.014L142.8.7h9.721l4.159,24.455c1.667.153,1.882.177,3.549.339ZM149.8,24.55l-2.214-14.093-2.1,13.742q2.16.168,4.319.351M45.977,24.215l5.417,16.277c-2.25.193-4.875.41-7.312.651l-4.5-14.911c-1.249.085-2.5.15-3.6.217v15.6c-2.464.28-4.782.581-7.1.9V.7h10.21c8.016.011,11.769,4.157,11.745,12.052-.018,4.963-1.429,8.906-4.861,11.466M43.813,13.37c.016-4.372-1.49-6.529-5.4-6.463H35.984V20.559c.786-.026,1.674-.1,2.574-.141,3.905-.209,5.238-2.674,5.255-7.048M23.065,6.9V.7H4.324V23.033L.871,23.42,0,29.625l4.324-.5V47.141c2.3-.469,4.772-.919,7.078-1.345V28.43q4.857-.449,9.717-.837V21.632q-4.86.366-9.717.79V6.9Zm34.4,33.073c6.407-.412,12.766-.665,19.182-.761V33.133c-4.077.053-8.029.16-12.1.323V25.2q5.11-.116,10.22-.167V19.207q-5.11.046-10.22.157V6.916H76.669V.7H57.462ZM170.49,44.022a3.089,3.089,0,0,1-.439,1.6,3.187,3.187,0,0,1-1.2,1.175,3.357,3.357,0,0,1-3.289,0,3.208,3.208,0,0,1-1.2-1.175,3.168,3.168,0,0,1-.183-2.855,3.17,3.17,0,0,1,.711-1.024,3.348,3.348,0,0,1,1.059-.687,3.251,3.251,0,0,1,1.256-.248,3.367,3.367,0,0,1,2.324.929,3.18,3.18,0,0,1,.706,1.019,3.136,3.136,0,0,1,.255,1.265m-.818-.071a2.391,2.391,0,0,0-.189-.955,2.463,2.463,0,0,0-.53-.78,2.418,2.418,0,0,0-.8-.526A2.449,2.449,0,0,0,164.95,43a2.466,2.466,0,0,0,.135,2.188,2.431,2.431,0,0,0,.894.892,2.472,2.472,0,0,0,2.471,0,2.464,2.464,0,0,0,.893-.894,2.4,2.4,0,0,0,.328-1.23m-.912,1.621H167.8c-.176-.363-.328-.652-.457-.862a1.264,1.264,0,0,0-.3-.382.7.7,0,0,0-.287-.056v1.3h-.809v-3.26H167.4a1.475,1.475,0,0,1,.859.222.8.8,0,0,1,.316.7.746.746,0,0,1-.271.639,1.463,1.463,0,0,1-.614.268,1.058,1.058,0,0,1,.413.3,4,4,0,0,1,.348.567Zm-1.013-2.287a.334.334,0,0,0-.166-.307.844.844,0,0,0-.439-.1h-.383v.813h.351a.979.979,0,0,0,.474-.093.334.334,0,0,0,.163-.313" transform="translate(0 0)"/>
  </g>
</svg>
