<svg id="Group_250" data-name="Group 250" xmlns="http://www.w3.org/2000/svg" xmlns:xlink="http://www.w3.org/1999/xlink" width="158.531" height="75.352" viewBox="0 0 158.531 75.352">
  <defs>
    <clipPath id="clip-path">
      <rect id="Rectangle_79" data-name="Rectangle 79" width="158.531" height="75.352"/>
    </clipPath>
  </defs>
  <g id="Group_250-2" data-name="Group 250" transform="translate(0 0)" clip-path="url(#clip-path)">
    <path id="Path_95" data-name="Path 95" d="M103.291,26.732V42.424h10.966v-.647a1.978,1.978,0,0,0-1.446-1.759l-1.584-.407V29.39a34.468,34.468,0,0,0-.213-4l-.025-.134.1-.1a4.515,4.515,0,0,1,2.956-.816c1.811,0,3.923,1.209,3.923,4.613V37.2c0,4.534,2.713,5.22,3.394,5.22h6.825V40.008c-2.443-.125-2.443-2.071-2.443-4.509V28.7c0-5.012-3.042-7.768-8.569-7.768A16.131,16.131,0,0,0,110.109,23l-.224.182-.157-.237c-.614-.907-3.1-2.011-5.1-2.011A15.625,15.625,0,0,0,99.2,21.982v2.157c2.644.055,4.1.972,4.1,2.594m18.571-.9a2.577,2.577,0,0,1,1.576,1.234,4.05,4.05,0,0,1,.516,2.028v8.433a2.646,2.646,0,0,0,.312,1.279,1.462,1.462,0,0,0,.3.362v1.619a2.561,2.561,0,0,1-1.58-1.233,4.071,4.071,0,0,1-.519-2.027V29.1a2.618,2.618,0,0,0-.309-1.278,1.512,1.512,0,0,0-.3-.363Zm-13.921-.01h1.488V39.163h-1.488Z" transform="translate(-38.711 -8.17)"/>
    <path id="Path_96" data-name="Path 96" d="M170.3,43.715a15.647,15.647,0,0,0,5.426-1.045V40.517c-2.646-.057-4.093-.974-4.093-2.6V22.229H160.673v.644a1.974,1.974,0,0,0,1.444,1.761l1.588.4V35.261a32.729,32.729,0,0,0,.207,4l.017.133-.093.092a4.463,4.463,0,0,1-2.948.815c-1.813,0-3.922-1.207-3.922-4.614V27.446c0-4.538-2.713-5.217-3.4-5.217h-6.827v2.414c2.447.125,2.447,2.068,2.447,4.508v6.8c0,5.007,3.039,7.765,8.571,7.765a16.152,16.152,0,0,0,7.06-2.065l.228-.185.162.238c.608.9,3.085,2.012,5.1,2.012M168.359,26.33h1.484V38.036a2.541,2.541,0,0,0,.316,1.279,1.433,1.433,0,0,0,.3.362V41.3a2.605,2.605,0,0,1-1.579-1.233,4.013,4.013,0,0,1-.516-2.027ZM155.79,41.3a2.53,2.53,0,0,1-1.581-1.233,4.014,4.014,0,0,1-.517-2.027V29.6a2.52,2.52,0,0,0-.32-1.278,1.475,1.475,0,0,0-.293-.363V26.34a2.555,2.555,0,0,1,1.574,1.234,4,4,0,0,1,.519,2.028v8.433a2.613,2.613,0,0,0,.312,1.279,1.471,1.471,0,0,0,.307.362Z" transform="translate(-57.265 -8.675)"/>
    <path id="Path_97" data-name="Path 97" d="M59,89.665l-.253.576-.23-.588-9.19-23.547H35.568v.648a1.977,1.977,0,0,0,1.448,1.759l2.7.692V97.258l-2.7.7a1.969,1.969,0,0,0-1.448,1.759v.646H49.507v-.646a1.965,1.965,0,0,0-1.445-1.759l-2.7-.7V78.606l.505-.094,7.5,19.568c.791,2.107,4.7,2.644,5.6,2.74L68.408,78.5l.5.1V97.258l-2.7.7a1.964,1.964,0,0,0-1.44,1.759v.646H82.049v-.646A1.961,1.961,0,0,0,80.6,97.954l-2.7-.7V69.205l2.7-.692a1.97,1.97,0,0,0,1.448-1.759v-.648H69.294Zm-2.362,4.128L46.97,69.15h1.591l8.974,22.916ZM74.618,69.15h1.488V97.1H74.618Z" transform="translate(-13.88 -25.798)"/>
    <path id="Path_98" data-name="Path 98" d="M23.427,23.555l-.254.578-.227-.587L13.753,0H0V.645a1.976,1.976,0,0,0,1.449,1.76l2.7.691V31.151l-2.7.7A1.967,1.967,0,0,0,0,33.607v.647H13.938v-.647A1.965,1.965,0,0,0,12.5,31.848l-2.706-.7V12.5l.506-.091,7.5,19.567c.787,2.107,4.694,2.643,5.6,2.738L32.841,12.4l.5.1V31.151l-2.7.7a1.962,1.962,0,0,0-1.444,1.759v.647H46.482v-.647a1.964,1.964,0,0,0-1.449-1.759l-2.7-.7V3.1l2.7-.691A1.973,1.973,0,0,0,46.482.645V0H33.725Zm-2.363,4.131L11.4,3.043h1.592l8.97,22.915ZM39.051,3.043h1.488v27.95H39.051Z" transform="translate(0 0)"/>
    <path id="Path_99" data-name="Path 99" d="M227.754,110.007a3.359,3.359,0,1,1,3.366-3.366,3.335,3.335,0,0,1-3.366,3.366m.015-6.344a2.987,2.987,0,1,0,2.963,2.977,2.953,2.953,0,0,0-2.963-2.977m.827,3.394.871,1.281h-.92l-.754-1.151h-.625v1.151h-.79v-3.571h1.588c.852,0,1.4.434,1.4,1.177a1.113,1.113,0,0,1-.771,1.112m-.659-1.6h-.768v1.053h.786c.4,0,.612-.219.612-.521,0-.353-.241-.532-.629-.532" transform="translate(-87.574 -40.309)"/>
    <path id="Path_100" data-name="Path 100" d="M75.511,15.952V16.6a1.971,1.971,0,0,0,1.451,1.761l1.581.4s-.011,10.621,0,11.029c0,5.843,1.425,7.443,6.6,7.443,3.413,0,4.841-1.1,4.841-1.1V33.994c-2.266-.17-3.51-1.066-3.51-2.567V15.952Zm9.777,19.067a2.581,2.581,0,0,1-1.577-1.233,4.042,4.042,0,0,1-.513-2.027V20.052h1.474V31.758a2.592,2.592,0,0,0,.316,1.279,1.635,1.635,0,0,0,.3.362ZM81.968,12.611c1.934,0,3.987-1.123,3.987-3.207a3.35,3.35,0,0,0-3.5-3.26c-1.635,0-3.935,1.011-3.935,3.26a3.342,3.342,0,0,0,3.449,3.207m.976-2.169A1.864,1.864,0,0,0,83.261,9.4a2.094,2.094,0,0,0-.4-1.24h1.485a2.08,2.08,0,0,1,.4,1.24,1.874,1.874,0,0,1-.319,1.046Z" transform="translate(-29.468 -2.398)"/>
    <path id="Path_101" data-name="Path 101" d="M154.277,82.062V82.7a1.975,1.975,0,0,0,1.451,1.763l1.58.405s-.01,10.619,0,11.027c0,5.841,1.427,7.442,6.6,7.442,3.42,0,4.851-1.1,4.851-1.1v-2.132c-2.271-.171-3.513-1.07-3.513-2.568V82.062Zm9.791,19.064a2.59,2.59,0,0,1-1.58-1.23,4.072,4.072,0,0,1-.513-2.027V86.163h1.476V97.869a2.585,2.585,0,0,0,.317,1.276,1.542,1.542,0,0,0,.3.361ZM160.737,78.72c1.93,0,3.984-1.123,3.984-3.207a3.35,3.35,0,0,0-3.5-3.263c-1.629,0-3.935,1.01-3.935,3.263a3.345,3.345,0,0,0,3.454,3.207m.97-2.173a1.84,1.84,0,0,0,.32-1.044,2.135,2.135,0,0,0-.4-1.243h1.486a2.1,2.1,0,0,1,.4,1.243,1.827,1.827,0,0,1-.32,1.044Z" transform="translate(-60.207 -28.196)"/>
    <path id="Path_102" data-name="Path 102" d="M203.078,96.05a3.315,3.315,0,0,1-.071-.673V70.231c0-2.6-.6-3.837-4.042-3.837h-6.755v1.264a1.545,1.545,0,0,0,1.162,1.479,1.922,1.922,0,0,1,1.595,1.945v8.779l-.347-.138a9.85,9.85,0,0,0-3.152-.615c-6.627,0-11.439,4.451-11.439,10.58,0,6.776,3.766,11.493,9.158,11.493a14.373,14.373,0,0,0,7.165-1.674l.143-.073.135.1a9.324,9.324,0,0,0,5.047,1.732,15.606,15.606,0,0,0,5.424-1.046V98.062c-2.294-.049-3.7-.759-4.021-2.012m-8-12.794V97.077l-.143.07a6.377,6.377,0,0,1-3.471.831c-1.829,0-2.919-3.1-2.919-8.291,0-4.968,1.161-7.594,3.346-7.594a5,5,0,0,1,3.094.965l.093.081Zm6.744,15.585a2.511,2.511,0,0,1-1.565-1.23,4.079,4.079,0,0,1-.531-2.027V69.263h1.486v26.32a2.557,2.557,0,0,0,.311,1.276,1.5,1.5,0,0,0,.3.362Zm-15.3-1.627a17.837,17.837,0,0,1-1.279-7.526,19.376,19.376,0,0,1,.813-5.815h1.491a19.345,19.345,0,0,0-.818,5.815,17.762,17.762,0,0,0,1.282,7.526Z" transform="translate(-70.256 -25.91)"/>
    <path id="Path_103" data-name="Path 103" d="M243.02,33.228H230.739l0,.268c.118,4.554,1.5,7.273,3.949,7.273a3.285,3.285,0,0,0,2.473-1.119c1.248-1.246.558-2.526,2.963-2.526h1.6c1.715,0,1.985,1.145,2.012,1.667v.9c0,.085,0,.168,0,.252a2.742,2.742,0,0,1-1.554,2.08,18.328,18.328,0,0,1-7.771,1.62c-7.8,0-12.447-4.277-12.447-11.433,0-7.855,6.622-10.64,12.291-10.64,7.032,0,10.9,3.457,10.9,9.735a1.875,1.875,0,0,1-2.132,1.919m-5.8-2.349c0-4.265-.924-6.529-3.021-6.529-2.282,0-3.283,2.319-3.468,6.529Zm-8.527,8.534h1.479c-1.237-1.84-1.36-6.072-1.36-7.2a21.2,21.2,0,0,1,.918-6.14H228.25a21.159,21.159,0,0,0-.924,6.14c0,1.127.131,5.359,1.367,7.2m14.626-8.534a10.368,10.368,0,0,0-1.2-4.8h-1.492a10.369,10.369,0,0,1,1.206,4.8Z" transform="translate(-86.621 -8.419)"/>
    <path id="Path_104" data-name="Path 104" d="M197.359,30.151c0,5.842,1.864,7.443,7.037,7.443,3.416,0,4.843-1.1,4.843-1.1V34.357c-2.269-.17-3.508-1.067-3.508-2.568V20H209.8V16.314H205.73V7.071h-1.514a1.623,1.623,0,0,0-1.485,1.209c-1,2.516-3.949,4.09-5.357,4.655v3.378h-3.091V20h3.076Zm6.89,3.249a1.54,1.54,0,0,0,.307.362V35.38a2.526,2.526,0,0,1-1.574-1.233,3.916,3.916,0,0,1-.527-2.027V20.414h1.486V32.121a2.479,2.479,0,0,0,.308,1.279m-.308-22.9v5.792h-1.488V12.317a7.44,7.44,0,0,0,1.488-1.815" transform="translate(-75.819 -2.759)"/>
    <path id="Path_105" data-name="Path 105" d="M134.838,103.453V94.06c0-4.591-4.512-6.652-8.993-6.652a17.649,17.649,0,0,0-9.632,2.83,2.562,2.562,0,0,0-.9,1.467c-.018.357-.03.719-.03,1.1v.259a1.68,1.68,0,0,0,1.654,1.643h2.186a1.771,1.771,0,0,0,1.92-1.14h.012a5.775,5.775,0,0,1,1.082-2.19v0a4.151,4.151,0,0,1,3.182-1.188c.417,0,1.11.206,1.11,1.585v4.545l-.231.027c-6.165.633-12.74,1.758-12.74,7.123,0,3.736,2.923,5.968,7.819,5.968a17,17,0,0,0,6.388-1.574l.118-.05.112.065a9.762,9.762,0,0,0,4.706,1.505,17.725,17.725,0,0,0,2.887-.264,6.614,6.614,0,0,0,2.863-.965v-2.13c-2.267-.17-3.509-1.068-3.509-2.569m-8.411-4.6v6.843l-.183.047a8.514,8.514,0,0,1-2.415.44c-1.3,0-1.964-1.352-1.964-4.03,0-2.855,1.938-3.3,4.273-3.559l.289-.034Zm5.655,6.962a4,4,0,0,1-.518-2.027V95.349a2.556,2.556,0,0,0-.312-1.277,1.476,1.476,0,0,0-.3-.363v-1.62a2.548,2.548,0,0,1,1.576,1.228,4,4,0,0,1,.521,2.032v8.436a2.551,2.551,0,0,0,.313,1.275,1.541,1.541,0,0,0,.3.362v1.619a2.558,2.558,0,0,1-1.572-1.229m-12.877-.032a9.161,9.161,0,0,1-.607-3.63,6.343,6.343,0,0,1,.257-1.841h1.48a6.154,6.154,0,0,0-.262,1.841,9.159,9.159,0,0,0,.608,3.63Z" transform="translate(-44.276 -34.111)"/>
  </g>
</svg>
