<svg id="Group_252" data-name="Group 252" xmlns="http://www.w3.org/2000/svg" xmlns:xlink="http://www.w3.org/1999/xlink" width="132.216" height="50" viewBox="0 0 132.216 50">
  <defs>
    <clipPath id="clip-path">
      <rect id="Rectangle_80" data-name="Rectangle 80" width="132.216" height="50"/>
    </clipPath>
  </defs>
  <g id="Group_252-2" data-name="Group 252" clip-path="url(#clip-path)">
    <path id="Path_106" data-name="Path 106" d="M66.47,24.376,60.848,40H51.707L61.924,11.769h6.3v5.944c1.959-4.844,4.126-6.433,7.135-6.433a6.641,6.641,0,0,1,3.494.9L75.5,21.453c-.541-2.567-5.675-6.39-9.026,2.923M127.3,37.068a1.344,1.344,0,0,0-.677.173,1.271,1.271,0,0,0-.653,1.114,1.254,1.254,0,0,0,.174.648,1.282,1.282,0,0,0,.479.467,1.418,1.418,0,0,0,1.353,0,1.282,1.282,0,0,0,.479-.467,1.289,1.289,0,0,0,0-1.294,1.268,1.268,0,0,0-.479-.468,1.344,1.344,0,0,0-.676-.173m0,2.324a1.087,1.087,0,0,1-.545-.135.949.949,0,0,1-.37-.369,1.135,1.135,0,0,1,0-1.061.946.946,0,0,1,.372-.369,1.159,1.159,0,0,1,1.084,0,.948.948,0,0,1,.372.369,1.131,1.131,0,0,1,0,1.061.953.953,0,0,1-.37.369,1.086,1.086,0,0,1-.544.135m.556-1.263a.366.366,0,0,0-.1-.262.36.36,0,0,0-.272-.106h-.674v1.164h.3V38.5h.226l.273.424h.34l-.306-.453a.354.354,0,0,0,.161-.139.383.383,0,0,0,.056-.205m-.75-.113h.32a.127.127,0,0,1,.09.03.12.12,0,0,1,0,.165.127.127,0,0,1-.09.031h-.32ZM25.541,31.385c3.243-8.969-9.025-14.819-6.838-20.826a3.789,3.789,0,0,1,3.911-2.652c3.029,0,6.07,2.438,7.321,7.583L33.7,5.156c-2.444-2.295-5.151-3.418-9.915-3.418-6.414,0-11.679,2.936-13.867,8.948-3.5,9.6,8.573,15.509,6.561,21.047A4.167,4.167,0,0,1,12.1,34.619c-2.91,0-6.463-3.241-8.083-8.3L0,37.351C2.39,40.06,5.83,41,9.968,41c7.785,0,13.193-3.03,15.573-9.61m18.418-19.6-9.2-.013L20.908,50h9.14L42.071,16.808c3.827,0,5.4,3.361,2.907,10.219A24.191,24.191,0,0,1,34.616,40.1c8.7,0,16.076-3.445,19.823-13.739s-2.49-14.579-10.479-14.579m43.542.591a6.186,6.186,0,1,0-6.186-6.186A6.186,6.186,0,0,0,87.5,12.373m36.782-1.093c-8.678,0-14.5,5.842-17.639,14.468-2.821,7.751-.229,14.663,7.794,14.663a16.939,16.939,0,0,0,14.876-9.365c-2.857,2.352-6.451,4.234-9.553,4.234-4.2,0-5.472-4.635-3.652-9.634,2.213-6.079,5.35-10.724,7.694-10.724,3.042,0,.259,8.627-7.28,12.671,8.534,0,13.276-2.364,15.277-7.862,1.662-4.567-1.814-8.45-7.516-8.45m-12.9.417H106.41l3.24-8.9-4.489,0C102.175,9.8,96.783,13.674,90.935,14.638l-1.214,3.274h5.3L87.025,40h9.141l7.992-22.09h4.976Zm-30.872,1.41L70.78,40h9.14l9.106-25.161a17.408,17.408,0,0,1-8.513-1.734"/>
  </g>
</svg>
