<svg xmlns="http://www.w3.org/2000/svg" xmlns:xlink="http://www.w3.org/1999/xlink" width="114.782" height="36" viewBox="0 0 114.782 36">
  <defs>
    <clipPath id="clip-path">
      <rect id="Rectangle_74" data-name="Rectangle 74" width="114.782" height="36"/>
    </clipPath>
  </defs>
  <g id="Group_251" data-name="Group 251" transform="translate(0 -0.002)">
    <path id="Path_72" data-name="Path 72" d="M278.36,45.62h-3.446l-1.944,3.151h3.444Z" transform="translate(-218.575 -36.527)"/>
    <g id="Group_245" data-name="Group 245" transform="translate(0 0.002)">
      <g id="Group_244" data-name="Group 244" clip-path="url(#clip-path)">
        <path id="Path_73" data-name="Path 73" d="M49.738,36a15.057,15.057,0,0,0-9.128-2.659,5.6,5.6,0,0,0-4.45,2.417c-1.388-2.417-4.129-3.9-8.362-3.864-6.838.081-13.625,3.239-19,3.239-5.159,0-8.918-3.238-8.794-8.992C.223,16.053,8.744,6.961,15.117,2.867,18.778.514,21.845-.183,23.852.04a2.928,2.928,0,0,1,2.114,4.343c-1.628,3.651-3.881,3.345-3.8,1.6a2.887,2.887,0,0,1,1.366-2.235,2.765,2.765,0,0,1,1.329-.328c.321-.272.569-2.268-2.057-1.609S17.022,5.048,14.01,8.369s-7.7,9.623-8.853,16.226c-.538,3.066-.177,8.648,7.079,8.584,6.153-.054,15.235-4.108,23.577-4.034A15.915,15.915,0,0,1,44.067,31.4c2.165,1.338,4.755,3.277,5.671,4.6m1.97-18.292h1.263s-6.32,9.139-9.894,8.725c-1.995-.231-1.4-2.693-1.4-2.693s-2.806,3.281-5.368,2.625c-2.333-.6-.831-4.477-.831-4.477-.265.107-5.312,5.8-8.857,4.437-3.71-1.429-1.789-6.2-1.081-7.629.6-1.208,1.257-2.386,1.257-2.386s-.57.163-.923.245-.892.185-.892.185-1.755,2.855-2.827,4.279-5.632,6.324-8.318,5.347-2.026-4.733-.516-7.721c2.447-4.844,8.255-10.8,11.751-9.906,3.534.9.611,6.636.611,6.636s.7.089,2.388-1.059c2.43-1.656,5.624-6.111,9.092-5.591,1.628.245,3.145,1.916,1.072,5.089-.665,1.018-1.778,1.93-2.633,1.032-.529-.557-.069-1.579.488-2.28a2.2,2.2,0,0,1,1.874-.856s.57-1.316-.883-1.289c-1.18.022-4.164,2.773-5.849,5.551-1.546,2.551-3.885,6.9-1.534,7.843,2.158.868,6.257-4,8.157-6.554s6.221-8.341,9.852-8.577A2.418,2.418,0,0,1,49.7,9.743l.421-.665h3.623S46.911,20.5,46.376,21.36c-.421.678-.977,2.2.57,1.343s4.763-4.994,4.763-4.994M23.568,16.55A8.05,8.05,0,0,1,21.7,15.7a3.964,3.964,0,0,1-1.334-1.475c-.032-.059-.068-.013-.1.036s-.226.294-1.52,2.195-3.212,5.79-1.413,6.454c1.15.426,3.08-1.594,4.125-2.931a33.614,33.614,0,0,0,2.174-3.262c.05-.113,0-.139-.06-.163M25,10.483c-.949-.719-3.372.964-3.384,2.683-.014,1.763,2.187,2.265,2.471,2.278a.3.3,0,0,0,.348-.141,15.668,15.668,0,0,0,.7-1.557c.334-.876.758-2.591-.13-3.262m18.483,9.506c1.465-2.009,5.505-9.047,5.505-9.047a.593.593,0,0,0-.538-.517c-.56-.024-1.486.163-3.345,2.484A43.43,43.43,0,0,0,40.772,19c-1.147,2.1-1.65,3.576-.991,3.976a.961.961,0,0,0,.692.071,4.145,4.145,0,0,0,1.764-1.428c.36-.416.77-.972,1.248-1.628M110.632,3.432c-2.547,1.639-6.076,3.121-9.464,2.8-.856.89-1.776,1.915-2.7,3.036,5.881,1.16,11.024-2.484,13.762-5.587A18.411,18.411,0,0,0,114.784.013a22.828,22.828,0,0,1-4.152,3.419M100.554,30.144c-.489.783-1.041,2.275.57,1.343,1.961-1.135,4.754-5.373,4.754-5.373h1.262a42.248,42.248,0,0,1-3.835,5.039c-1.988,2.2-4.412,4.205-6.12,4.008-1.995-.231-1.371-2.849-1.371-2.849s-2.863,3.04-4.83,2.823c-2.665-.295-1.855-3.592-1.855-3.592s-3.013,3.709-5.066,3.592c-3.223-.185-2.416-4.117-1.521-6.867.481-1.474.925-2.637.925-2.637a10.113,10.113,0,0,1-1.005.185c-.358.053-1.013.087-1.013.087a43.9,43.9,0,0,1-2.41,3.794c-1.072,1.425-5.634,6.328-8.319,5.347-2.48-.906-1.663-4.707-.218-7.726,2.108-4.4,8.034-10.73,11.455-9.9,3.544.858.083,7.33.083,7.33s0,.024.038.038a1.494,1.494,0,0,0,.683-.036,7.349,7.349,0,0,0,1.3-.388,75.368,75.368,0,0,1,7.5-12.351c3.936-4.885,11.786-13.3,14.873-11.264.756.5.411,2.222-.6,4.314-.449.141-.914.267-1.391.367a11.3,11.3,0,0,0,1.261-3c.461-2.524-5.429,2.8-9.635,8.522a79.263,79.263,0,0,0-6.731,10.911A18.026,18.026,0,0,0,91.5,20.315a63.042,63.042,0,0,0,5.346-5,58.488,58.488,0,0,0,4.549-5.252,12.709,12.709,0,0,0,1.338-.138,57.815,57.815,0,0,1-5.017,5.934c-1.674,1.7-3.493,3.527-5.076,4.858a41.962,41.962,0,0,1-4.451,3.312S84.5,31.452,86.5,31.93c1.176.281,3.5-3.3,3.5-3.3a82.465,82.465,0,0,1,4.859-6.713c2.493-2.84,4.64-4.477,6.785-4.515a2.559,2.559,0,0,1,1.99,1.313l.589-.91h3.623s-6.758,11.478-7.3,12.34M80.185,25.626a7.513,7.513,0,0,1-1.664-1.062,5.42,5.42,0,0,1-1.256-1.517c-.032-.058-.068-.013-.1.036s-.183.179-1.477,2.079-3.272,5.817-1.474,6.482c1.15.425,3.064-1.587,4.109-2.924a24.973,24.973,0,0,0,1.927-2.931c.05-.114,0-.14-.06-.164m1.829-3.2c.335-.876.758-2.591-.129-3.263-.95-.718-3.372.964-3.385,2.684a2.98,2.98,0,0,0,2.122,2.67c.235.064.317.055.43-.135a15.189,15.189,0,0,0,.961-1.955M102.815,20a1.287,1.287,0,0,0,.108-.245.593.593,0,0,0-.539-.516c-.559-.026-1.324.081-3.324,2.3a30.063,30.063,0,0,0-4.252,6.043c-1.147,2.1-1.607,3.657-.949,4.057a.975.975,0,0,0,.692.072c.449-.109.952-.524,1.723-1.414.361-.417.761-1.009,1.239-1.666,1.318-1.8,4.641-7.486,5.3-8.63m7.817-16.566c-2.547,1.639-6.076,3.121-9.464,2.8-.856.89-1.776,1.915-2.7,3.036,5.881,1.16,11.024-2.484,13.762-5.587A18.411,18.411,0,0,0,114.784.013a22.828,22.828,0,0,1-4.152,3.419M94.111,7.7C91.329,6.273,89.3,4.532,87.182,3.446,85.162,2.41,83.857,1.981,82.229,2.2a4.873,4.873,0,0,0-.674.168s.843,2.868-2.5,7.689c-3.384,4.886-6.455,4.861-7.328,3.51-.915-1.416.263-4.307,2.235-6.875a24.749,24.749,0,0,1,5.69-4.922s-1.158-.706-4,.9a39.96,39.96,0,0,0-11.96,11.6c-4.415,6.3-5.3,9.762-5.935,12.49s-.054,5.644,2.972,5.644,6.542-4.614,7.532-6.22c1.844-2.986,3.046-7.568.536-6.937-1.238.311-2.239,1.684-2.87,3a12.739,12.739,0,0,0-.91,2.651,10.446,10.446,0,0,0-2.45,1.425,18.375,18.375,0,0,0-2.32,2.056A14.56,14.56,0,0,1,62,22.675a9.311,9.311,0,0,1,6.731-5.293c1.628-.134,3.745,1.249,1.954,6.351S63.6,35.024,58.032,35.106c-5.132.076-8.5-6.478-1.357-17.912C64.574,4.545,73.856.664,76.868.23s3.99.895,3.99.895A12.923,12.923,0,0,1,86.585.176c3.678.249,6.525,2.851,10.276,4.677-.981.951-1.913,1.926-2.751,2.844M80.411,2.74a14.263,14.263,0,0,0-4.653,3.615c-2.51,2.769-3.958,5.864-2.879,6.685.412.315,1.367.367,3.1-1.193a13.725,13.725,0,0,0,3.667-5.09c1.12-2.732.762-3.984.762-4.016" transform="translate(-0.002 -0.001)"/>
        <path id="Path_74" data-name="Path 74" d="M520.922,163.241a1.287,1.287,0,0,1,.487.477,1.308,1.308,0,0,1,0,1.316,1.3,1.3,0,0,1-.487.474,1.436,1.436,0,0,1-1.375,0,1.3,1.3,0,0,1-.487-.474,1.3,1.3,0,0,1,.487-1.793,1.436,1.436,0,0,1,1.375,0m-.134,2.051a.97.97,0,0,0,.376-.376,1.09,1.09,0,0,0,.134-.542,1.074,1.074,0,0,0-.134-.536.954.954,0,0,0-.378-.376,1.176,1.176,0,0,0-1.1,0,.951.951,0,0,0-.379.376,1.075,1.075,0,0,0-.134.536,1.091,1.091,0,0,0,.134.542.964.964,0,0,0,.376.376,1.187,1.187,0,0,0,1.107,0m-.046-.94a.358.358,0,0,1-.163.141l.311.46h-.346l-.277-.431h-.231v.431h-.3v-1.183h.685a.361.361,0,0,1,.275.107.366.366,0,0,1,.1.266.388.388,0,0,1-.057.208m-.7-.093h.326a.127.127,0,0,0,.091-.031.108.108,0,0,0,.033-.084.109.109,0,0,0-.033-.084.127.127,0,0,0-.091-.031h-.326Z" transform="translate(-415.483 -130.572)"/>
      </g>
    </g>
  </g>
</svg>
