<svg xmlns="http://www.w3.org/2000/svg" xmlns:xlink="http://www.w3.org/1999/xlink" width="159.419" height="50" viewBox="0 0 159.419 50">
  <defs>
    <clipPath id="clip-path">
      <rect id="Rectangle_74" data-name="Rectangle 74" width="159.419" height="50" fill="#fff"/>
    </clipPath>
  </defs>
  <g id="Group_251" data-name="Group 251" transform="translate(0 -0.002)">
    <path id="Path_72" data-name="Path 72" d="M280.456,45.62h-4.786L272.971,50h4.784Z" transform="translate(-197.421 -32.992)" fill="#fff"/>
    <g id="Group_245" data-name="Group 245" transform="translate(0 0.002)">
      <g id="Group_244" data-name="Group 244" clip-path="url(#clip-path)">
        <path id="Path_73" data-name="Path 73" d="M69.08,50A20.913,20.913,0,0,0,56.4,46.307a7.773,7.773,0,0,0-6.181,3.357c-1.928-3.357-5.735-5.417-11.614-5.367-9.5.112-18.924,4.5-26.387,4.5C5.055,48.8-.166,44.3.007,36.307.308,22.3,12.144,9.668,20.994,3.982,26.08.714,30.34-.255,33.126.055c2.031.226,4.478,2.573,2.936,6.031-2.261,5.07-5.391,4.645-5.279,2.224a4.01,4.01,0,0,1,1.9-3.1,3.841,3.841,0,0,1,1.845-.456c.446-.378.79-3.15-2.856-2.235s-8.029,4.495-12.212,9.107S8.769,24.988,7.162,34.159c-.747,4.259-.245,12.011,9.832,11.923,8.545-.075,21.16-5.705,32.746-5.6A22.1,22.1,0,0,1,61.2,43.612c3.007,1.859,6.6,4.551,7.877,6.389M71.817,24.6H73.57S64.792,37.288,59.829,36.714c-2.771-.32-1.95-3.74-1.95-3.74s-3.9,4.557-7.456,3.646c-3.24-.829-1.154-6.219-1.154-6.219-.368.149-7.378,8.06-12.3,6.163-5.153-1.985-2.484-8.607-1.5-10.6.828-1.678,1.746-3.314,1.746-3.314s-.791.226-1.281.34-1.238.257-1.238.257-2.437,3.965-3.927,5.943-7.822,8.783-11.553,7.426S16.4,30.047,18.5,25.9c3.4-6.728,11.465-15,16.321-13.759,4.908,1.25.849,9.217.849,9.217s.977.124,3.317-1.47c3.374-2.3,7.812-8.488,12.628-7.766,2.261.34,4.368,2.661,1.49,7.068-.924,1.414-2.47,2.681-3.656,1.433-.735-.774-.1-2.194.678-3.166a3.052,3.052,0,0,1,2.6-1.188s.791-1.827-1.227-1.79c-1.638.031-5.783,3.851-8.123,7.71-2.148,3.543-5.4,9.578-2.13,10.894,3,1.206,8.69-5.561,11.329-9.1s8.64-11.584,13.683-11.912a3.358,3.358,0,0,1,2.769,1.47l.585-.924h5.032s-9.49,15.858-10.234,17.058c-.585.942-1.356,3.052.791,1.866S71.817,24.6,71.817,24.6M32.732,22.986A11.181,11.181,0,0,1,30.137,21.8a5.506,5.506,0,0,1-1.852-2.049c-.044-.081-.095-.018-.145.05s-.314.409-2.111,3.048-4.461,8.042-1.963,8.965c1.6.592,4.278-2.214,5.729-4.071a46.686,46.686,0,0,0,3.02-4.53c.069-.156.006-.193-.083-.226m1.991-8.427c-1.318-1-4.684,1.339-4.7,3.726-.019,2.449,3.038,3.145,3.432,3.163a.42.42,0,0,0,.483-.2,21.761,21.761,0,0,0,.965-2.163c.464-1.216,1.053-3.6-.18-4.53m25.671,13.2C62.43,24.972,68.041,15.2,68.041,15.2a.824.824,0,0,0-.747-.717c-.778-.034-2.064.226-4.645,3.45a60.319,60.319,0,0,0-6.022,8.457c-1.593,2.912-2.291,4.967-1.376,5.522a1.335,1.335,0,0,0,.961.1,5.757,5.757,0,0,0,2.45-1.984c.5-.578,1.069-1.351,1.733-2.261m93.26-22.995c-3.537,2.276-8.439,4.335-13.145,3.882-1.19,1.235-2.467,2.66-3.746,4.217,8.167,1.611,15.312-3.45,19.114-7.76A25.571,25.571,0,0,0,159.422.018a31.706,31.706,0,0,1-5.767,4.749m-14,37.1c-.679,1.088-1.445,3.16.791,1.866,2.723-1.576,6.6-7.463,6.6-7.463H148.8a58.677,58.677,0,0,1-5.326,7c-2.762,3.06-6.127,5.841-8.5,5.566-2.771-.32-1.9-3.958-1.9-3.958S129.1,49.1,126.363,48.8c-3.7-.409-2.576-4.989-2.576-4.989s-4.185,5.152-7.037,4.989c-4.477-.257-3.355-5.719-2.112-9.537.669-2.047,1.284-3.662,1.284-3.662a14.046,14.046,0,0,1-1.4.257c-.5.074-1.407.121-1.407.121a60.979,60.979,0,0,1-3.348,5.27c-1.489,1.979-7.825,8.789-11.555,7.426-3.444-1.258-2.31-6.538-.3-10.731,2.927-6.114,11.158-14.9,15.91-13.751,4.923,1.191.115,10.181.115,10.181s0,.034.053.053a2.075,2.075,0,0,0,.949-.05,10.207,10.207,0,0,0,1.8-.539s4.946-10.368,10.412-17.154,16.37-18.467,20.657-15.644c1.05.691.571,3.087-.837,5.991-.623.2-1.27.371-1.932.509a15.7,15.7,0,0,0,1.752-4.163c.641-3.506-7.54,3.882-13.382,11.835a110.088,110.088,0,0,0-9.348,15.154,25.036,25.036,0,0,0,3.016-2.148,87.56,87.56,0,0,0,7.425-6.938,81.232,81.232,0,0,0,6.318-7.295,17.651,17.651,0,0,0,1.858-.192,80.3,80.3,0,0,1-6.968,8.241c-2.325,2.357-4.852,4.9-7.05,6.747a58.281,58.281,0,0,1-6.182,4.6s-5.122,10.3-2.337,10.969c1.634.39,4.862-4.586,4.862-4.586a114.532,114.532,0,0,1,6.749-9.323c3.463-3.944,6.445-6.219,9.423-6.27a3.554,3.554,0,0,1,2.763,1.823l.818-1.264h5.032S140.4,40.669,139.657,41.866m-28.29-6.275a10.434,10.434,0,0,1-2.312-1.475,7.528,7.528,0,0,1-1.745-2.106c-.044-.081-.094-.018-.144.05s-.254.248-2.052,2.887-4.545,8.079-2.047,9c1.6.591,4.256-2.2,5.707-4.061a34.686,34.686,0,0,0,2.676-4.071c.069-.158.006-.195-.083-.227m2.54-4.45c.465-1.216,1.053-3.6-.179-4.532-1.32-1-4.684,1.339-4.7,3.727-.018,2.449,2.371,3.553,2.948,3.708.326.089.44.077.6-.187a21.1,21.1,0,0,0,1.334-2.716m28.89-3.366a1.787,1.787,0,0,0,.151-.34.823.823,0,0,0-.748-.716c-.776-.035-1.839.112-4.617,3.191a41.754,41.754,0,0,0-5.906,8.393c-1.593,2.912-2.232,5.079-1.318,5.634a1.354,1.354,0,0,0,.961.1c.623-.152,1.323-.728,2.393-1.965.5-.579,1.057-1.4,1.721-2.313,1.83-2.5,6.446-10.4,7.364-11.986M153.655,4.767c-3.537,2.276-8.439,4.335-13.145,3.882-1.19,1.235-2.467,2.66-3.746,4.217,8.167,1.611,15.312-3.45,19.114-7.76A25.571,25.571,0,0,0,159.422.018a31.706,31.706,0,0,1-5.767,4.749m-22.946,5.924c-3.865-1.978-6.684-4.4-9.624-5.9-2.8-1.439-4.617-2.035-6.879-1.734a6.768,6.768,0,0,0-.936.233s1.17,3.983-3.469,10.68c-4.7,6.786-8.966,6.752-10.178,4.876-1.271-1.966.365-5.981,3.1-9.549a34.374,34.374,0,0,1,7.9-6.836s-1.609-.98-5.554,1.256C101.234,5.89,94.6,11.074,88.466,19.82s-7.357,13.558-8.243,17.347-.075,7.839,4.127,7.839,9.085-6.408,10.461-8.638c2.561-4.148,4.23-10.511.744-9.634-1.72.432-3.11,2.34-3.985,4.168a17.693,17.693,0,0,0-1.264,3.681,14.509,14.509,0,0,0-3.4,1.979,25.52,25.52,0,0,0-3.222,2.855s.011-3.025,2.422-7.925,6.842-7.143,9.348-7.351c2.261-.186,5.2,1.735,2.715,8.821S88.328,48.644,80.6,48.758c-7.128.1-11.8-9-1.885-24.878C89.685,6.312,102.577.922,106.76.319S112.3,1.562,112.3,1.562A17.949,17.949,0,0,1,120.256.244c5.109.345,9.063,3.96,14.272,6.5-1.363,1.321-2.657,2.675-3.82,3.95M111.68,3.806a19.81,19.81,0,0,0-6.462,5.02c-3.487,3.845-5.5,8.145-4,9.284.573.437,1.9.509,4.31-1.658a19.063,19.063,0,0,0,5.093-7.069c1.556-3.8,1.058-5.534,1.058-5.578" transform="translate(-0.002 -0.001)" fill="#fff"/>
        <path id="Path_74" data-name="Path 74" d="M521.715,163.31a1.787,1.787,0,0,1,.676.663,1.816,1.816,0,0,1,0,1.828,1.8,1.8,0,0,1-.676.658,1.994,1.994,0,0,1-1.91,0,1.8,1.8,0,0,1-.676-.658,1.806,1.806,0,0,1,.676-2.49,1.994,1.994,0,0,1,1.91,0m-.186,2.849a1.347,1.347,0,0,0,.523-.523,1.514,1.514,0,0,0,.186-.753,1.492,1.492,0,0,0-.186-.744,1.325,1.325,0,0,0-.525-.523,1.634,1.634,0,0,0-1.531,0,1.321,1.321,0,0,0-.527.523,1.493,1.493,0,0,0-.186.744,1.515,1.515,0,0,0,.186.753,1.339,1.339,0,0,0,.523.523,1.648,1.648,0,0,0,1.538,0m-.063-1.3a.5.5,0,0,1-.226.2l.433.639h-.48l-.385-.6h-.32v.6h-.419v-1.643h.952a.5.5,0,0,1,.383.149.508.508,0,0,1,.143.369.539.539,0,0,1-.08.289m-.979-.13h.453a.176.176,0,0,0,.127-.043.15.15,0,0,0,.046-.117.152.152,0,0,0-.046-.117.176.176,0,0,0-.127-.043h-.453Z" transform="translate(-375.272 -117.935)" fill="#fff"/>
      </g>
    </g>
  </g>
</svg>
